<svg xmlns="http://www.w3.org/2000/svg" width="3840" height="2160" viewBox="0 0 3840 2160">
  <defs>
    <radialGradient id="bg" cx="50%" cy="48%" r="78%">
      <stop offset="0" stop-color="#18112d"/>
      <stop offset="0.48" stop-color="#0d0a1c"/>
      <stop offset="1" stop-color="#05040b"/>
    </radialGradient>
    <radialGradient id="glow" cx="50%" cy="50%" r="50%">
      <stop offset="0" stop-color="#b45cff" stop-opacity="0.46"/>
      <stop offset="0.38" stop-color="#7c35d8" stop-opacity="0.18"/>
      <stop offset="1" stop-color="#4d1b8f" stop-opacity="0"/>
    </radialGradient>
    <linearGradient id="arc" x1="0" y1="0" x2="1" y2="1">
      <stop offset="0" stop-color="#d7a1ff" stop-opacity="0"/>
      <stop offset="0.46" stop-color="#a95cff" stop-opacity="0.85"/>
      <stop offset="0.56" stop-color="#7c39d6" stop-opacity="0.75"/>
      <stop offset="1" stop-color="#4b1a89" stop-opacity="0"/>
    </linearGradient>
    <filter id="blur80"><feGaussianBlur stdDeviation="80"/></filter>
    <filter id="blur25"><feGaussianBlur stdDeviation="25"/></filter>
  </defs>

  <rect width="3840" height="2160" fill="url(#bg)"/>
  <ellipse cx="1920" cy="1110" rx="1420" ry="760" fill="url(#glow)" filter="url(#blur80)"/>

  <g fill="none" stroke="url(#arc)" stroke-linecap="round">
    <ellipse cx="1940" cy="1100" rx="1320" ry="620" stroke-width="9" opacity="0.48" transform="rotate(-13 1940 1100)"/>
    <ellipse cx="1940" cy="1100" rx="1100" ry="510" stroke-width="5" opacity="0.38" transform="rotate(-13 1940 1100)"/>
    <ellipse cx="1940" cy="1100" rx="870" ry="400" stroke-width="3" opacity="0.28" transform="rotate(-13 1940 1100)"/>
  </g>

  <path d="M450 1570 C980 1150 1360 820 1910 930 C2460 1040 2860 1460 3420 690" fill="none" stroke="#a65cff" stroke-width="34" opacity="0.14" filter="url(#blur25)"/>
  <path d="M450 1570 C980 1150 1360 820 1910 930 C2460 1040 2860 1460 3420 690" fill="none" stroke="#c17bff" stroke-width="4" opacity="0.48"/>

  <circle cx="1920" cy="1090" r="170" fill="#9f4cff" opacity="0.13" filter="url(#blur25)"/>
  <circle cx="1920" cy="1090" r="4" fill="#e6ccff" opacity="0.9"/>

  <g fill="#ffffff">
    <circle cx="430" cy="420" r="2" opacity="0.55"/>
    <circle cx="710" cy="760" r="3" opacity="0.42"/>
    <circle cx="1130" cy="300" r="2" opacity="0.5"/>
    <circle cx="1530" cy="520" r="2" opacity="0.35"/>
    <circle cx="2270" cy="350" r="3" opacity="0.5"/>
    <circle cx="2760" cy="610" r="2" opacity="0.45"/>
    <circle cx="3210" cy="380" r="3" opacity="0.5"/>
    <circle cx="3470" cy="1280" r="2" opacity="0.38"/>
    <circle cx="690" cy="1680" r="2" opacity="0.35"/>
    <circle cx="1240" cy="1880" r="3" opacity="0.4"/>
    <circle cx="2640" cy="1770" r="2" opacity="0.45"/>
    <circle cx="3120" cy="1550" r="2" opacity="0.35"/>
  </g>
</svg>
